# xmcd CD database file
#
# Track frame offsets:
#	150
#	7318
#	12131
#	32785
#	51253
#	66853
#	89513
#	109321
#	123053
#	145241
#	164606
#	174871
#	190104
#	214387
#	219291
#	230366
#	243355
#	275009
#
# Disc length: 4041 seconds
#
# Revision: 0
# Processed by: cddbd v1.5.1PL0 Copyright (c) Steve Scherf et al.
# Submitted via: CDex 1.51
#
DISCID=040fc712
DTITLE=植木屋 - 天使が消えた日 - ANGERAZE ORIGINAL SOUND TRACK - Disc1 ANGERAZE2 SIDE
DYEAR=2004
DGENRE=Hard Rock
TTITLE0=Angeraze
TTITLE1=Vanish
TTITLE2=An Angel's Wings
TTITLE3=Linon Kulge
TTITLE4=Breath Bound
TTITLE5=Dead End
TTITLE6=Phase
TTITLE7=Filia
TTITLE8=Shrine
TTITLE9=Minority
TTITLE10=Black Star
TTITLE11=Fate
TTITLE12=Sin
TTITLE13=Sin After Sin
TTITLE14=Anecdote
TTITLE15=Keep On Calling
TTITLE16=Repose Of Souls
TTITLE17=Data Track
EXTD=YEAR: 2004
EXTT0=
EXTT1=
EXTT2=
EXTT3=
EXTT4=
EXTT5=
EXTT6=
EXTT7=
EXTT8=
EXTT9=
EXTT10=
EXTT11=
EXTT12=
EXTT13=
EXTT14=
EXTT15=
EXTT16=
EXTT17=
PLAYORDER=
